<svg xmlns="http://www.w3.org/2000/svg" xmlns:xlink="http://www.w3.org/1999/xlink" width="2560" height="700pt" viewBox="0 0 1920 700"><defs><symbol overflow="visible" id="a"><path style="stroke:none" d="M15.184.355c-2-.003-3.516-.457-4.547-1.37-1.035-.91-1.719-2.325-2.055-4.239-.34-1.91-.457-4.355-.355-7.34l.304-7.617H3.555v-2.996h5.078l.203-5.941 3.809-.457.507-.051.051.355a5.18 5.18 0 0 0-.433.711c-.122.242-.211.649-.278 1.219l-.355 4.164h8.125v2.996h-8.075l-.355 7.871c-.105 2.574-.035 4.567.203 5.969.235 1.406.656 2.371 1.27 2.894.605.528 1.418.79 2.437.786 1.113.003 2.102-.22 2.969-.66.86-.438 1.766-.997 2.719-1.676l1.117 2.894c-1.152.848-2.34 1.477-3.555 1.88a12.11 12.11 0 0 1-3.808.608Zm0 0"/></symbol><symbol overflow="visible" id="b"><path style="stroke:none" d="M12.695.406C10.594.402 8.738-.109 7.133-1.14c-1.61-1.03-2.867-2.453-3.781-4.265C2.438-7.215 1.98-9.29 1.98-11.63c0-2.367.458-4.457 1.372-6.27.914-1.808 2.171-3.23 3.78-4.265 1.606-1.031 3.462-1.547 5.563-1.55 2.098.003 3.95.519 5.559 1.55 1.605 1.035 2.867 2.457 3.785 4.266.91 1.812 1.367 3.902 1.371 6.27-.004 2.339-.46 4.413-1.37 6.222-.919 1.812-2.18 3.234-3.786 4.265C16.644-.109 14.793.402 12.695.406Zm0-3.047c1.352.004 2.535-.386 3.555-1.168 1.012-.777 1.816-1.843 2.41-3.199.59-1.351.887-2.906.89-4.672-.003-2.636-.648-4.797-1.929-6.472-1.289-1.676-2.93-2.512-4.926-2.516-2 .004-3.64.84-4.925 2.516-1.29 1.675-1.934 3.836-1.93 6.472-.004 1.766.293 3.32.887 4.672.593 1.356 1.406 2.422 2.437 3.2 1.031.78 2.207 1.171 3.531 1.167Zm0 0"/></symbol><symbol overflow="visible" id="c"><path style="stroke:none" d="M3.047 8.48v-31.687h3.707v4.57c.539-1.758 1.445-3.043 2.715-3.86 1.27-.808 2.715-1.214 4.344-1.218a9.366 9.366 0 0 1 4.796 1.297c1.473.863 2.657 2.176 3.555 3.934.895 1.761 1.344 3.996 1.348 6.703-.004 2.71-.477 4.988-1.422 6.832-.95 1.847-2.168 3.234-3.656 4.164C16.94.145 15.367.609 13.71.609A8.22 8.22 0 0 1 9.8-.355a8.069 8.069 0 0 1-2.996-2.692V8.48ZM13.102-2.64c1.082.003 2.128-.258 3.148-.786 1.012-.523 1.844-1.445 2.488-2.77.64-1.316.961-3.128.965-5.433-.004-2.773-.527-4.93-1.574-6.473-1.05-1.539-2.543-2.363-4.469-2.464-1.258-.067-2.406.214-3.453.84-1.05.628-1.89 1.667-2.516 3.12-.628 1.458-.941 3.387-.937 5.79.066 2.742.676 4.793 1.828 6.144 1.148 1.36 2.656 2.035 4.52 2.031Zm0 0"/></symbol><symbol overflow="visible" id="d"><path style="stroke:none" d="M5.078 0v-2.945h5.942v-17.317H5.383v-2.945h9.293v20.262h5.433V0Zm7.567-28.082c-.711.004-1.32-.25-1.829-.762a2.48 2.48 0 0 1-.761-1.828c0-.742.242-1.367.734-1.879.488-.504 1.11-.758 1.856-.761.71.003 1.328.265 1.851.789.524.527.785 1.144.79 1.851a2.463 2.463 0 0 1-.79 1.828c-.523.512-1.14.766-1.851.762Zm0 0"/></symbol><symbol overflow="visible" id="e"><path style="stroke:none" d="M14.473.559C12.238.555 10.238.035 8.48-1.016 6.715-2.062 5.336-3.504 4.34-5.332c-1-1.828-1.5-3.91-1.496-6.246-.004-2.336.496-4.406 1.496-6.219.996-1.808 2.367-3.242 4.113-4.293 1.742-1.047 3.73-1.57 5.969-1.574 1.89.004 3.594.387 5.101 1.144a9.893 9.893 0 0 1 3.684 3.172l-2.285 2.235-.356.355-.253-.254a1.787 1.787 0 0 0-.18-.761c-.117-.235-.38-.559-.785-.965-.746-.676-1.543-1.149-2.387-1.422-.848-.27-1.828-.406-2.945-.406-1.29 0-2.5.355-3.633 1.066-1.133.71-2.047 1.719-2.742 3.023-.696 1.305-1.043 2.856-1.04 4.645-.003 1.73.344 3.277 1.04 4.648.695 1.372 1.652 2.457 2.87 3.25 1.22.797 2.606 1.192 4.165 1.192 2.332 0 4.347-.946 6.043-2.844l2.133 2.488C20.582-.66 17.789.555 14.472.56Zm0 0"/></symbol><symbol overflow="visible" id="s"><path style="stroke:none" d="M1.93 0v-23.207H5.28v2.285a6.536 6.536 0 0 1 2.082-2.055c.844-.523 1.723-.789 2.64-.789 1.013 0 1.903.325 2.665.965a4.28 4.28 0 0 1 1.45 2.438c.437-1.012 1.132-1.832 2.081-2.461a5.593 5.593 0 0 1 3.149-.942c1.59 0 2.746.57 3.476 1.703.727 1.137 1.059 2.547.992 4.239V0h-3.351v-16.453c-.004-1.422-.098-2.453-.281-3.098-.188-.64-.45-1.054-.786-1.242a2.358 2.358 0 0 0-1.117-.281c-.644.004-1.246.3-1.804.89-.559.594-1.016 1.329-1.372 2.207-.355.883-.535 1.766-.53 2.641V0h-3.403v-16.148c-.004-1.93-.184-3.215-.535-3.86-.36-.64-1.028-.96-2.004-.965-.75.004-1.492.485-2.235 1.45-.746.964-1.12 2.312-1.117 4.035V0Zm0 0"/></symbol><symbol overflow="visible" id="t"><path style="stroke:none" d="M10.715.559C8.07.555 6.039-.043 4.62-1.242 3.195-2.445 2.484-3.977 2.488-5.84c-.004-1.656.52-3.086 1.575-4.289 1.046-1.2 2.46-2.129 4.238-2.793 1.777-.656 3.734-.988 5.867-.992.777.004 1.598.02 2.46.05.864.036 1.786.122 2.77.255-.207-2.707-.91-4.57-2.109-5.586-1.203-1.016-2.922-1.524-5.152-1.524a9.012 9.012 0 0 0-3.301.637 8.514 8.514 0 0 0-2.945 1.953l-1.778-2.336a10.58 10.58 0 0 1 3.758-2.437c1.418-.54 2.926-.809 4.52-.813 2.062.004 3.855.34 5.382 1.016 1.52.68 2.707 1.847 3.555 3.504.844 1.66 1.266 3.945 1.27 6.855V0h-3.961v-3.555c-.578 1.121-1.317 1.977-2.211 2.567A8.356 8.356 0 0 1 13.582.227a13.7 13.7 0 0 1-2.867.332Zm-4.57-6.602c-.004 1.461.468 2.457 1.421 2.996.946.543 2.114.817 3.504.813 2.5.004 4.48-.735 5.942-2.207 1.453-1.473 2.25-3.598 2.386-6.375a38.202 38.202 0 0 0-4.925-.356c-2.438.004-4.438.41-5.993 1.219-1.562.816-2.34 2.121-2.335 3.91Zm0 0"/></symbol><symbol overflow="visible" id="u"><path style="stroke:none" d="M12.746.508C8.816.504 5.536-.711 2.895-3.148l2.03-3.454.305-.457.305.204c.067.273.14.554.227.84.082.288.312.636.687 1.038.707.715 1.563 1.297 2.563 1.754 1 .457 2.277.688 3.836.684 1.859.004 3.304-.328 4.34-.988 1.03-.66 1.55-1.567 1.55-2.72 0-.98-.433-1.792-1.297-2.437-.863-.64-2.378-1.316-4.543-2.03-2.68-.778-4.804-1.743-6.375-2.895-1.578-1.149-2.363-2.586-2.359-4.317-.004-1.758.715-3.172 2.156-4.238 1.438-1.066 3.563-1.602 6.375-1.602 2.164 0 3.957.305 5.383.914 1.418.61 2.707 1.524 3.86 2.743l-2.083 2.539-.355.406-.254-.254a2.7 2.7 0 0 0-.23-.785c-.121-.254-.364-.567-.735-.942a8.808 8.808 0 0 0-2.64-1.394c-.985-.32-1.93-.484-2.844-.484-1.356 0-2.524.238-3.504.71-.984.477-1.477 1.204-1.473 2.184-.004.508.172 1.008.532 1.5.351.492 1.003.984 1.957 1.473.945.492 2.3.992 4.062 1.496 2.91.883 4.965 1.84 6.168 2.87 1.2 1.036 1.8 2.38 1.805 4.036A6.753 6.753 0 0 1 21.3-3.148c-.696 1.12-1.75 2.007-3.172 2.668-1.422.656-3.219.984-5.383.988Zm0 0"/></symbol><symbol overflow="visible" id="v"><path style="stroke:none" d="M13.813.508C10.421.504 7.686-.527 5.608-2.59c-2.086-2.062-3.125-5.039-3.12-8.937-.005-2.637.476-4.864 1.445-6.676.96-1.809 2.25-3.188 3.859-4.14 1.61-.946 3.394-1.423 5.36-1.423 1.757 0 3.347.391 4.773 1.168 1.418.782 2.554 1.985 3.402 3.606.844 1.629 1.266 3.71 1.27 6.246-.004.273-.012.55-.028.84-.015.289-.043.57-.074.836H5.992c.133 2.984.969 5.168 2.512 6.55 1.539 1.391 3.344 2.082 5.41 2.082 2.434 0 4.43-.863 5.992-2.59l2.032 1.981C19.973-.68 17.261.503 13.813.508ZM6.144-13.914H18.89c0-2.164-.551-3.883-1.653-5.152-1.101-1.27-2.55-1.903-4.34-1.907-1.593.004-3.03.57-4.316 1.703-1.289 1.137-2.102 2.922-2.437 5.356Zm0 0"/></symbol><symbol overflow="visible" id="w"><path style="stroke:none" d="M6.043-23.207h3.809l-.102 4.266c.64-1.555 1.637-2.747 2.996-3.579 1.352-.828 2.809-1.246 4.367-1.246 2.469 0 4.516.848 6.145 2.54l-1.625 2.843-.203.457-.356-.203a3.235 3.235 0 0 0-.304-.762c-.137-.234-.426-.52-.864-.863-.547-.336-1.047-.566-1.5-.683a6.47 6.47 0 0 0-1.547-.18c-1.12.004-2.23.293-3.328.863-1.101.578-2.004 1.473-2.715 2.692-.71 1.218-1.066 2.812-1.066 4.773V.05H6.043Zm0 0"/></symbol><symbol overflow="visible" id="f"><path style="stroke:none" d="M23.227 0 9.699-35.652h-.222c.09 1.12.18 2.605.261 4.449.082 1.851.121 3.765.125 5.746V0H5.512v-40.281h6.941L25.211-6.777h.191l12.95-33.504h6.886V0H40.61v-25.79c-.004-1.796.04-3.589.125-5.37.082-1.781.16-3.258.235-4.438h-.219L27.055 0Zm0 0"/></symbol><symbol overflow="visible" id="g"><path style="stroke:none" d="M16.45-30.746c2.566.004 4.769.57 6.609 1.707 1.836 1.14 3.242 2.734 4.218 4.781.97 2.047 1.457 4.442 1.461 7.176v2.836H7.878c.052 3.55.934 6.25 2.645 8.105 1.707 1.856 4.114 2.786 7.22 2.782 1.91.004 3.597-.172 5.07-.524 1.464-.347 2.992-.863 4.574-1.543v4.02A22.445 22.445 0 0 1 22.852.082c-1.497.313-3.266.469-5.301.469-4.36 0-7.848-1.324-10.473-3.98-2.625-2.65-3.937-6.466-3.937-11.45 0-3.246.543-6.062 1.636-8.441 1.09-2.38 2.633-4.211 4.63-5.496 1.991-1.286 4.34-1.926 7.042-1.93ZM16.394-27c-2.446 0-4.395.8-5.844 2.398-1.453 1.598-2.317 3.829-2.59 6.692h15.98c-.02-2.695-.64-4.883-1.859-6.567C20.859-26.157 18.965-27 16.395-27Zm0 0"/></symbol><symbol overflow="visible" id="h"><path style="stroke:none" d="M18.543-30.746c1.3.004 2.523.121 3.664.355l-.578 4.243a14.358 14.358 0 0 0-3.363-.41c-1.618.003-3.094.43-4.434 1.28-1.344.856-2.414 2.06-3.21 3.61-.802 1.555-1.2 3.379-1.2 5.469V0H4.82v-30.195h3.805l.496 5.562h.191a13.59 13.59 0 0 1 3.692-4.32c1.539-1.192 3.387-1.79 5.539-1.793Zm0 0"/></symbol><symbol overflow="visible" id="i"><path style="stroke:none" d="M13.254 13.555c-3.969-.004-7.027-.742-9.176-2.22C1.93 9.856.855 7.786.855 5.126c0-1.895.602-3.512 1.805-4.852 1.203-1.34 2.867-2.226 5-2.671a5.278 5.278 0 0 1-2.027-1.653c-.563-.73-.84-1.578-.84-2.535 0-1.101.305-2.07.922-2.906.613-.836 1.555-1.637 2.824-2.41-1.582-.641-2.863-1.73-3.844-3.266-.984-1.531-1.472-3.316-1.472-5.36 0-3.245 1-5.773 3.004-7.574 2-1.8 4.82-2.699 8.457-2.703 1.726.004 3.214.188 4.464.555h10.36v2.945l-5.567.692c.551.718 1.008 1.582 1.38 2.59.363 1.011.546 2.132.55 3.359-.004 3.016-1.023 5.41-3.058 7.18-2.043 1.773-4.844 2.656-8.403 2.656-.851 0-1.715-.07-2.59-.219C9.98-10.03 9.062-8.785 9.066-7.3c-.004.883.395 1.504 1.196 1.86.797.363 1.914.543 3.347.539h5.32c3.286.004 5.805.691 7.56 2.066C28.241-1.457 29.12.551 29.12 3.195c0 3.34-1.36 5.903-4.078 7.688-2.719 1.777-6.648 2.668-11.79 2.672Zm1.32-27.715c4.387.004 6.582-2.156 6.586-6.477-.004-4.515-2.215-6.773-6.64-6.777-2.094.004-3.707.586-4.836 1.75-1.133 1.168-1.7 2.871-1.696 5.11-.004 2.058.567 3.64 1.707 4.741 1.137 1.106 2.762 1.657 4.88 1.653ZM13.391 9.973c3.726 0 6.515-.567 8.359-1.696 1.844-1.129 2.766-2.668 2.77-4.613-.004-1.805-.622-2.969-1.848-3.5-1.235-.531-3.004-.797-5.313-.797h-5.238c-2.059 0-3.687.465-4.89 1.403-1.204.933-1.805 2.332-1.805 4.19 0 1.63.687 2.872 2.066 3.731 1.375.852 3.34 1.282 5.899 1.282Zm0 0"/></symbol><symbol overflow="visible" id="j"><path style="stroke:none" d="M2.258-13.113v-4.078h13.668v4.078Zm0 0"/></symbol><symbol overflow="visible" id="k"><path style="stroke:none" d="M5.512-40.281h11.406c5.027.004 8.812.758 11.348 2.261 2.535 1.508 3.8 4.07 3.804 7.684-.004 2.356-.664 4.32-1.984 5.898-1.324 1.583-3.234 2.602-5.73 3.06v.273c2.624.421 4.789 1.37 6.488 2.84 1.699 1.472 2.547 3.738 2.55 6.804-.003 3.711-1.269 6.55-3.804 8.516C27.055-.98 23.645 0 19.367 0H5.512Zm4.683 17.277h7.715c3.504 0 5.934-.578 7.285-1.734 1.352-1.157 2.028-2.848 2.028-5.075 0-2.292-.805-3.945-2.414-4.957-1.61-1.007-4.168-1.511-7.672-1.515h-6.942Zm0 3.938v15.07h8.375c3.578 0 6.114-.7 7.602-2.106 1.488-1.402 2.234-3.3 2.234-5.691 0-2.273-.773-4.055-2.316-5.344-1.543-1.285-4.188-1.93-7.934-1.93Zm0 0"/></symbol><symbol overflow="visible" id="l"><path style="stroke:none" d="M16.117-30.691c3.598 0 6.27.808 8.02 2.425 1.742 1.618 2.617 4.2 2.617 7.739V0h-3.336l-.879-4.465h-.223c-1.27 1.672-2.644 2.926-4.12 3.762C16.714.133 14.671.55 12.065.55 9.31.55 7.043-.172 5.262-1.625 3.48-3.07 2.59-5.293 2.59-8.293c0-3.008 1.191-5.324 3.582-6.941 2.383-1.618 6.02-2.5 10.91-2.649l5.207-.219v-1.847c0-2.606-.562-4.434-1.68-5.48C19.484-26.478 17.906-27 15.871-27c-1.582 0-3.09.23-4.52.691a31.668 31.668 0 0 0-4.078 1.622l-1.406-3.47c1.356-.695 2.918-1.292 4.684-1.788a20.444 20.444 0 0 1 5.566-.746Zm6.117 15.812-4.601.195c-3.77.149-6.422.766-7.965 1.844-1.543 1.086-2.316 2.617-2.313 4.602-.003 1.726.52 3.004 1.57 3.832 1.044.828 2.43 1.242 4.16 1.238 2.68.004 4.876-.738 6.587-2.23 1.703-1.485 2.558-3.72 2.562-6.696Zm0 0"/></symbol><symbol overflow="visible" id="m"><path style="stroke:none" d="M24.355-8.266c-.003 2.887-1.074 5.079-3.21 6.57C19.004-.195 16.078.552 12.37.552 10.254.55 8.426.383 6.887.055 5.34-.277 3.992-.742 2.836-1.352v-4.214c1.23.609 2.7 1.164 4.41 1.656 1.707.5 3.453.746 5.234.742 2.61.004 4.5-.418 5.676-1.266 1.172-.843 1.758-1.992 1.762-3.445-.004-1.246-.55-2.289-1.64-3.129-1.094-.832-3.09-1.793-5.989-2.879-1.934-.734-3.601-1.46-5.004-2.187-1.406-.723-2.488-1.61-3.25-2.66-.762-1.043-1.14-2.403-1.14-4.078 0-2.547 1.03-4.508 3.097-5.88 2.067-1.367 4.781-2.05 8.14-2.054 1.821.004 3.524.183 5.114.539 1.586.36 3.07.84 4.45 1.441l-1.544 3.668a28.9 28.9 0 0 0-3.996-1.351A17.18 17.18 0 0 0 13.832-27c-2.113 0-3.734.352-4.863 1.047-1.133.703-1.7 1.656-1.696 2.863-.003.942.258 1.715.786 2.317.52.609 1.359 1.18 2.52 1.71 1.155.536 2.683 1.157 4.573 1.872 1.891.699 3.524 1.421 4.907 2.164 1.375.746 2.437 1.644 3.18 2.699.741 1.055 1.113 2.41 1.116 4.062Zm0 0"/></symbol><symbol overflow="visible" id="n"><path style="stroke:none" d="M7.164-41.492c.75.004 1.399.246 1.941.73.54.489.81 1.246.813 2.274-.004 1.011-.273 1.765-.813 2.258-.543.5-1.19.746-1.94.742-.794.004-1.45-.242-1.97-.742-.527-.493-.789-1.247-.785-2.258-.004-1.028.258-1.785.785-2.274.52-.484 1.176-.726 1.97-.73Zm2.23 11.297V0H4.82v-30.195Zm0 0"/></symbol><symbol overflow="visible" id="o"><path style="stroke:none" d="M22.73-36.727c-2.96 0-5.511.672-7.66 2.012-2.148 1.344-3.804 3.254-4.96 5.73-1.16 2.481-1.739 5.419-1.735 8.817-.004 5.09 1.184 9.133 3.555 12.125 2.367 2.996 5.922 4.492 10.664 4.488a26.71 26.71 0 0 0 5.082-.453 44.717 44.717 0 0 0 4.64-1.144v4.078c-1.472.554-3.015.96-4.629 1.226-1.617.266-3.535.399-5.757.399-4.098 0-7.52-.848-10.262-2.547-2.75-1.7-4.805-4.102-6.172-7.207-1.367-3.102-2.05-6.766-2.05-10.992 0-4.059.75-7.64 2.257-10.746 1.5-3.102 3.692-5.532 6.57-7.286 2.872-1.753 6.375-2.628 10.512-2.632 4.184.004 7.856.785 11.02 2.343l-1.871 3.965a30.92 30.92 0 0 0-4.23-1.527c-1.536-.43-3.196-.649-4.974-.649Zm0 0"/></symbol><symbol overflow="visible" id="p"><path style="stroke:none" d="M30.86-15.152c-.005 4.96-1.25 8.82-3.735 11.57C24.633-.824 21.223.551 16.891.551c-2.684 0-5.063-.617-7.137-1.86-2.078-1.234-3.7-3.027-4.863-5.37-1.168-2.344-1.75-5.169-1.75-8.473 0-4.961 1.242-8.797 3.73-11.516 2.488-2.715 5.89-4.074 10.211-4.078 2.75.004 5.16.617 7.23 1.848 2.063 1.23 3.672 3.007 4.825 5.328 1.144 2.324 1.718 5.129 1.722 8.418Zm-22.981 0c-.004 3.656.726 6.554 2.191 8.691C11.527-4.316 13.836-3.246 17-3.25c3.137.004 5.441-1.07 6.914-3.223 1.465-2.148 2.2-5.043 2.203-8.68-.004-3.617-.734-6.476-2.191-8.581-1.461-2.102-3.778-3.153-6.953-3.157-3.145.004-5.446 1.04-6.903 3.114-1.465 2.078-2.195 4.953-2.191 8.625Zm0 0"/></symbol><symbol overflow="visible" id="q"><path style="stroke:none" d="M37.61-30.746c3.32.004 5.828.871 7.519 2.605 1.687 1.739 2.531 4.524 2.535 8.36V0h-4.52v-19.563c-.003-4.882-2.097-7.324-6.28-7.328-2.923.004-5.044.848-6.364 2.536-1.328 1.69-1.988 4.18-1.984 7.464V0h-4.547v-19.563c-.004-4.882-2.106-7.324-6.309-7.328-2.996.004-5.125.93-6.379 2.786-1.261 1.855-1.89 4.566-1.886 8.125V0H4.82v-30.195h3.692l.691 4.27h.246a9.283 9.283 0 0 1 3.746-3.583c1.578-.824 3.332-1.234 5.266-1.238 2.293.004 4.215.43 5.77 1.281 1.546.856 2.671 2.156 3.374 3.899h.25c.993-1.743 2.352-3.043 4.079-3.899 1.726-.851 3.617-1.277 5.675-1.281Zm0 0"/></symbol><symbol overflow="visible" id="r"><path style="stroke:none" d="M14.574-3.195c.75.004 1.524-.063 2.313-.192.789-.129 1.43-.285 1.93-.468v3.55c-.536.239-1.274.438-2.22.606-.949.164-1.87.25-2.765.25-1.602 0-3.055-.278-4.355-.84-1.305-.555-2.344-1.508-3.125-2.852C5.57-4.48 5.18-6.336 5.18-8.707v-17.906H.883v-2.235l4.324-1.789 1.82-6.558h2.754v7h8.844v3.582H9.781v17.77c-.004 1.894.434 3.308 1.309 4.241.87.942 2.031 1.41 3.484 1.407Zm0 0"/></symbol><symbol overflow="visible" id="x"><path style="stroke:none" d="M16.082.563c-2.523 0-4.828-.63-6.914-1.887-2.09-1.258-3.746-3.211-4.965-5.867-1.226-2.649-1.855-6.047-1.89-10.188-.004-3.46.398-6.348 1.21-8.66.805-2.313 1.872-4.156 3.192-5.531 1.316-1.371 2.773-2.356 4.37-2.961 1.599-.598 3.188-.899 4.77-.903 2.555.004 4.735.633 6.543 1.891 1.805 1.262 3.16 2.945 4.067 5.047l-3.387 1.582-.508.227-.168-.399c.11-.297.11-.57-.004-.816-.113-.243-.32-.625-.617-1.157-.945-1.273-1.914-2.128-2.906-2.566-1-.43-2.043-.648-3.133-.652-2.972.004-5.312 1.293-7.023 3.867-1.711 2.578-2.567 6.16-2.567 10.75 0 2.933.442 5.52 1.325 7.758C8.359-7.664 9.53-5.922 11-4.684c1.465 1.247 3.102 1.868 4.91 1.864 1.426.004 2.774-.383 4.035-1.157 1.258-.77 2.282-1.812 3.078-3.132l2.934 1.918C24.824-3.31 23.469-1.88 21.891-.902 20.313.074 18.375.563 16.082.563Zm0 0"/></symbol><symbol overflow="visible" id="y"><path style="stroke:none" d="M3.047.055v-35.207h8.183c3.004.004 5.344.418 7.024 1.242 1.672.828 3.094 2.012 4.262 3.555 2.293 3.085 3.441 7.41 3.441 12.976-.152 3.574-.746 6.668-1.781 9.281-1.035 2.618-2.653 4.633-4.852 6.04C17.121-.649 14.195.05 10.551.054ZM6.77-3.047h3.613c4.023 0 6.972-1.21 8.855-3.637 1.88-2.425 2.805-5.914 2.77-10.468-.04-4.586-.899-8.18-2.57-10.778-1.676-2.593-4.485-3.89-8.434-3.894H6.77Zm0 0"/></symbol><symbol overflow="visible" id="z"><path style="stroke:none" d="M2.707 0v-35.152h9.988c4.059.004 7.02.793 8.887 2.37 1.86 1.583 2.793 3.634 2.793 6.15 0 1.66-.453 3.218-1.355 4.683-.903 1.469-2.18 2.504-3.836 3.101 1.992.68 3.59 1.856 4.796 3.528 1.2 1.675 1.801 3.492 1.805 5.445-.004 2.977-1.058 5.363-3.16 7.168C20.515-.902 17.187 0 12.641 0Zm3.895-20.594h5.53c3.122.004 5.286-.523 6.49-1.578 1.202-1.055 1.804-2.39 1.804-4.008 0-1.543-.586-2.867-1.75-3.98-1.168-1.106-3.14-1.66-5.922-1.664H6.602Zm0 17.153h6.714c2.442.003 4.434-.497 5.98-1.497 1.54-.996 2.313-2.718 2.313-5.164 0-2.105-.687-3.824-2.058-5.16-1.375-1.332-3.774-2-7.196-2.004H6.602Zm0 0"/></symbol><symbol overflow="visible" id="A"><path style="stroke:none" d="m23.246 0-3.555-10.27H8.351L4.798 0H.902L13.88-35.773h.453L27.309 0Zm-9.195-26.746-4.63 13.43h9.255Zm0 0"/></symbol><symbol overflow="visible" id="B"><path style="stroke:none" d="M3.328 0v-35.21h21.555v3.5H7.055v11.565H21.78v3.614H7.055V-3.5h17.66V0Zm0 0"/></symbol><symbol overflow="visible" id="C"><path style="stroke:none" d="M4.402 0v-35.21h20.254v3.44H8.352v11.063H21.5v3.441H8.352V0Zm0 0"/></symbol><symbol overflow="visible" id="D"><path style="stroke:none" d="M2.313 0v-35.152h3.105l8.687 17.207 8.86-17.266h2.992V0H22.23v-26.52l-7.617 14.165H13.09L5.98-26.352V0Zm0 0"/></symbol></defs><path style="fill-rule:nonzero;fill:#fff;fill-opacity:1;stroke-width:0;stroke-linecap:butt;stroke-linejoin:miter;stroke:#000;stroke-opacity:1;stroke-miterlimit:10" d="M0 0h96v35H0Zm0 0" transform="scale(20)"/><path style="fill:none;stroke-width:.35;stroke-linecap:butt;stroke-linejoin:miter;stroke:#000;stroke-opacity:1;stroke-miterlimit:10" d="M22 17h-8M42 17h-7.95M62 17h-8M61.95 30H54M42 30 28 20" transform="scale(20)"/><path style="fill-rule:evenodd;fill:#9eec9e;fill-opacity:1;stroke-width:.1;stroke-linecap:butt;stroke-linejoin:round;stroke:#000;stroke-opacity:1;stroke-miterlimit:10" d="M62.897 23.486h10.206a.5.5 0 0 1 .5.5v2.028a.5.5 0 0 1-.5.5H62.897a.5.5 0 0 1-.5-.5v-2.028a.5.5 0 0 1 .5-.5" transform="scale(20)"/><g style="fill:#000;fill-opacity:1"><use xlink:href="#a" x="1296.523" y="513.977"/><use xlink:href="#b" x="1321.914" y="513.977"/><use xlink:href="#c" x="1347.305" y="513.977"/><use xlink:href="#d" x="1372.695" y="513.977"/><use xlink:href="#e" x="1398.086" y="513.977"/></g><path style="fill:none;stroke-width:.35;stroke-linecap:butt;stroke-linejoin:round;stroke:#000;stroke-opacity:1;stroke-miterlimit:10" d="M82 17h-8M88 20 74 30M28.597 13.52l11.156-8.991" transform="scale(20)"/><path style="fill-rule:evenodd;fill:#000;fill-opacity:1;stroke-width:.35;stroke-linecap:butt;stroke-linejoin:miter;stroke:#000;stroke-opacity:1;stroke-miterlimit:10" d="m28.305 13.754.232-.508.06.273.254.116-.546.12Zm0 0" transform="scale(20)"/><g style="fill:#000;fill-opacity:1"><use xlink:href="#f" x="623.039" y="79.641"/><use xlink:href="#g" x="673.781" y="79.641"/><use xlink:href="#h" x="705.461" y="79.641"/><use xlink:href="#i" x="728.527" y="79.641"/><use xlink:href="#g" x="759.172" y="79.641"/><use xlink:href="#j" x="790.852" y="79.641"/><use xlink:href="#k" x="809.016" y="79.641"/><use xlink:href="#l" x="845.461" y="79.641"/><use xlink:href="#m" x="876.809" y="79.641"/><use xlink:href="#n" x="903.703" y="79.641"/><use xlink:href="#m" x="917.941" y="79.641"/></g><g style="fill:#000;fill-opacity:1"><use xlink:href="#f" x="1205.875" y="76.73"/><use xlink:href="#g" x="1256.617" y="76.73"/><use xlink:href="#h" x="1288.297" y="76.73"/><use xlink:href="#i" x="1311.363" y="76.73"/><use xlink:href="#g" x="1342.008" y="76.73"/><use xlink:href="#j" x="1373.688" y="76.73"/><use xlink:href="#o" x="1391.852" y="76.73"/><use xlink:href="#p" x="1427.398" y="76.73"/><use xlink:href="#q" x="1461.344" y="76.73"/><use xlink:href="#q" x="1513.59" y="76.73"/><use xlink:href="#n" x="1565.836" y="76.73"/><use xlink:href="#r" x="1580.074" y="76.73"/></g><path style="fill:none;stroke-width:.35;stroke-linecap:butt;stroke-linejoin:miter;stroke:#000;stroke-opacity:1;stroke-miterlimit:10" d="M81.541 13.677 69.753 4.529" transform="scale(20)"/><path style="fill-rule:evenodd;fill:#000;fill-opacity:1;stroke-width:.35;stroke-linecap:butt;stroke-linejoin:miter;stroke:#000;stroke-opacity:1;stroke-miterlimit:10" d="m81.837 13.906-.548-.109.252-.12.055-.274.241.503Zm0 0" transform="scale(20)"/><path style="stroke:none;fill-rule:evenodd;fill:#a9e5a1;fill-opacity:1" d="M1650 200h220v65.5h-220ZM1650 210v-10c-5.523 0-10 4.477-10 10h10ZM1870 210h10c0-5.523-4.477-10-10-10v10Zm0 0"/><path style="stroke:none;fill-rule:evenodd;fill:#a9e5a1;fill-opacity:1" d="M1640 210h240v45.5h-240ZM1650 255.5h-10c0 5.523 4.477 10 10 10v-10ZM1870 255.5v10c5.523 0 10-4.477 10-10h-10Zm0 0"/><path style="fill:none;stroke-width:.1;stroke-linecap:butt;stroke-linejoin:miter;stroke:#000;stroke-opacity:1;stroke-miterlimit:10" d="M82.5 10h11M82.5 13.275h11M82.5 10a.5.5 0 0 0-.5.5M94 10.5a.5.5 0 0 0-.5-.5M82 10.5v2.275M94 10.5v2.275M82 12.775a.5.5 0 0 0 .5.5M93.5 13.275a.5.5 0 0 0 .5-.5" transform="scale(20)"/><g style="fill:#000;fill-opacity:1"><use xlink:href="#s" x="1683.828" y="252"/><use xlink:href="#t" x="1709.219" y="252"/><use xlink:href="#u" x="1734.609" y="252"/><use xlink:href="#a" x="1760" y="252"/><use xlink:href="#v" x="1785.391" y="252"/><use xlink:href="#w" x="1810.781" y="252"/></g><path style="stroke:none;fill-rule:evenodd;fill:#a1bbe5;fill-opacity:1" d="M850 280h220v120H850ZM850 290v-10c-5.523 0-10 4.477-10 10h10ZM1070 290h10c0-5.523-4.477-10-10-10v10Zm0 0"/><path style="stroke:none;fill-rule:evenodd;fill:#a1bbe5;fill-opacity:1" d="M840 290h240v100H840ZM850 390h-10c0 5.523 4.477 10 10 10v-10ZM1070 390v10c5.523 0 10-4.477 10-10h-10Zm0 0"/><path style="fill:none;stroke-width:.1;stroke-linecap:butt;stroke-linejoin:miter;stroke:#000;stroke-opacity:1;stroke-miterlimit:10" d="M42.5 14h11M42.5 20h11M42.5 14a.5.5 0 0 0-.5.5M54 14.5a.5.5 0 0 0-.5-.5M42 14.5v5M54 14.5v5M42 19.5a.5.5 0 0 0 .5.5M53.5 20a.5.5 0 0 0 .5-.5" transform="scale(20)"/><use xlink:href="#x" x="945.898" y="361.422" style="fill:#000;fill-opacity:1"/><path style="stroke:none;fill-rule:evenodd;fill:#d2f2ce;fill-opacity:1" d="M1250 200h220v65.5h-220ZM1250 210v-10c-5.523 0-10 4.477-10 10h10ZM1470 210h10c0-5.523-4.477-10-10-10v10Zm0 0"/><path style="stroke:none;fill-rule:evenodd;fill:#d2f2ce;fill-opacity:1" d="M1240 210h240v45.5h-240ZM1250 255.5h-10c0 5.523 4.477 10 10 10v-10ZM1470 255.5v10c5.523 0 10-4.477 10-10h-10Zm0 0"/><path style="fill:none;stroke-width:.1;stroke-linecap:butt;stroke-linejoin:miter;stroke:#a7a2a2;stroke-opacity:1;stroke-dasharray:.1,.1;stroke-miterlimit:10" d="M62.5 10h11M62.5 13.275h11M62.5 10a.5.5 0 0 0-.5.5M74 10.5a.5.5 0 0 0-.5-.5M62 10.5v2.275M74 10.5v2.275M62 12.775a.5.5 0 0 0 .5.5M73.5 13.275a.5.5 0 0 0 .5-.5" transform="scale(20)"/><g style="fill:#a7a2a2;fill-opacity:1"><use xlink:href="#s" x="1283.828" y="252"/><use xlink:href="#t" x="1309.219" y="252"/><use xlink:href="#u" x="1334.609" y="252"/><use xlink:href="#a" x="1360" y="252"/><use xlink:href="#v" x="1385.391" y="252"/><use xlink:href="#w" x="1410.781" y="252"/></g><path style="stroke:none;fill-rule:evenodd;fill:#a1bbe5;fill-opacity:1" d="M1250 280h220v120h-220ZM1250 290v-10c-5.523 0-10 4.477-10 10h10ZM1470 290h10c0-5.523-4.477-10-10-10v10Zm0 0"/><path style="stroke:none;fill-rule:evenodd;fill:#a1bbe5;fill-opacity:1" d="M1240 290h240v100h-240ZM1250 390h-10c0 5.523 4.477 10 10 10v-10ZM1470 390v10c5.523 0 10-4.477 10-10h-10Zm0 0"/><path style="fill:none;stroke-width:.1;stroke-linecap:butt;stroke-linejoin:miter;stroke:#000;stroke-opacity:1;stroke-miterlimit:10" d="M62.5 14h11M62.5 20h11M62.5 14a.5.5 0 0 0-.5.5M74 14.5a.5.5 0 0 0-.5-.5M62 14.5v5M74 14.5v5M62 19.5a.5.5 0 0 0 .5.5M73.5 20a.5.5 0 0 0 .5-.5" transform="scale(20)"/><use xlink:href="#y" x="1345.898" y="361.422" style="fill:#000;fill-opacity:1"/><path style="stroke:none;fill-rule:evenodd;fill:#a1bbe5;fill-opacity:1" d="M450 280h220v120H450ZM450 290v-10c-5.523 0-10 4.477-10 10h10ZM670 290h10c0-5.523-4.477-10-10-10v10Zm0 0"/><path style="stroke:none;fill-rule:evenodd;fill:#a1bbe5;fill-opacity:1" d="M440 290h240v100H440ZM450 390h-10c0 5.523 4.477 10 10 10v-10ZM670 390v10c5.523 0 10-4.477 10-10h-10Zm0 0"/><path style="fill:none;stroke-width:.1;stroke-linecap:butt;stroke-linejoin:miter;stroke:#000;stroke-opacity:1;stroke-miterlimit:10" d="M22.5 14h11M22.5 20h11M22.5 14a.5.5 0 0 0-.5.5M34 14.5a.5.5 0 0 0-.5-.5M22 14.5v5M34 14.5v5M22 19.5a.5.5 0 0 0 .5.5M33.5 20a.5.5 0 0 0 .5-.5" transform="scale(20)"/><use xlink:href="#z" x="545.898" y="361.422" style="fill:#000;fill-opacity:1"/><path style="stroke:none;fill-rule:evenodd;fill:#a1bbe5;fill-opacity:1" d="M50 280h220v120H50ZM50 290v-10c-5.523 0-10 4.477-10 10h10ZM270 290h10c0-5.523-4.477-10-10-10v10Zm0 0"/><path style="stroke:none;fill-rule:evenodd;fill:#a1bbe5;fill-opacity:1" d="M40 290h240v100H40ZM50 390H40c0 5.523 4.477 10 10 10v-10ZM270 390v10c5.523 0 10-4.477 10-10h-10Zm0 0"/><path style="fill:none;stroke-width:.1;stroke-linecap:butt;stroke-linejoin:miter;stroke:#000;stroke-opacity:1;stroke-miterlimit:10" d="M2.5 14h11M2.5 20h11M2.5 14a.5.5 0 0 0-.5.5M14 14.5a.5.5 0 0 0-.5-.5M2 14.5v5M14 14.5v5M2 19.5a.5.5 0 0 0 .5.5M13.5 20a.5.5 0 0 0 .5-.5" transform="scale(20)"/><use xlink:href="#A" x="145.898" y="361.422" style="fill:#000;fill-opacity:1"/><path style="stroke:none;fill-rule:evenodd;fill:#e9a4de;fill-opacity:1" d="M850 540h220v120H850ZM850 550v-10c-5.523 0-10 4.477-10 10h10ZM1070 550h10c0-5.523-4.477-10-10-10v10Zm0 0"/><path style="stroke:none;fill-rule:evenodd;fill:#e9a4de;fill-opacity:1" d="M840 550h240v100H840ZM850 650h-10c0 5.523 4.477 10 10 10v-10ZM1070 650v10c5.523 0 10-4.477 10-10h-10Zm0 0"/><path style="fill:none;stroke-width:.1;stroke-linecap:butt;stroke-linejoin:miter;stroke:#000;stroke-opacity:1;stroke-miterlimit:10" d="M42.5 27h11M42.5 33h11M42.5 27a.5.5 0 0 0-.5.5M54 27.5a.5.5 0 0 0-.5-.5M42 27.5v5M54 27.5v5M42 32.5a.5.5 0 0 0 .5.5M53.5 33a.5.5 0 0 0 .5-.5" transform="scale(20)"/><use xlink:href="#B" x="945.898" y="621.422" style="fill:#000;fill-opacity:1"/><path style="stroke:none;fill-rule:evenodd;fill:#e9a4de;fill-opacity:1" d="M1250 540h220v120h-220ZM1250 550v-10c-5.523 0-10 4.477-10 10h10ZM1470 550h10c0-5.523-4.477-10-10-10v10Zm0 0"/><path style="stroke:none;fill-rule:evenodd;fill:#e9a4de;fill-opacity:1" d="M1240 550h240v100h-240ZM1250 650h-10c0 5.523 4.477 10 10 10v-10ZM1470 650v10c5.523 0 10-4.477 10-10h-10Zm0 0"/><path style="fill:none;stroke-width:.1;stroke-linecap:butt;stroke-linejoin:miter;stroke:#000;stroke-opacity:1;stroke-miterlimit:10" d="M62.5 27h11M62.5 33h11M62.5 27a.5.5 0 0 0-.5.5M74 27.5a.5.5 0 0 0-.5-.5M62 27.5v5M74 27.5v5M62 32.5a.5.5 0 0 0 .5.5M73.5 33a.5.5 0 0 0 .5-.5" transform="scale(20)"/><use xlink:href="#C" x="1345.898" y="621.422" style="fill:#000;fill-opacity:1"/><path style="stroke:none;fill-rule:evenodd;fill:#a1bbe5;fill-opacity:1" d="M1650 280h220v120h-220ZM1650 290v-10c-5.523 0-10 4.477-10 10h10ZM1870 290h10c0-5.523-4.477-10-10-10v10Zm0 0"/><path style="stroke:none;fill-rule:evenodd;fill:#a1bbe5;fill-opacity:1" d="M1640 290h240v100h-240ZM1650 390h-10c0 5.523 4.477 10 10 10v-10ZM1870 390v10c5.523 0 10-4.477 10-10h-10Zm0 0"/><path style="fill:none;stroke-width:.1;stroke-linecap:butt;stroke-linejoin:miter;stroke:#000;stroke-opacity:1;stroke-miterlimit:10" d="M82.5 14h11M82.5 20h11M82.5 14a.5.5 0 0 0-.5.5M94 14.5a.5.5 0 0 0-.5-.5M82 14.5v5M94 14.5v5M82 19.5a.5.5 0 0 0 .5.5M93.5 20a.5.5 0 0 0 .5-.5" transform="scale(20)"/><use xlink:href="#D" x="1745.898" y="361.422" style="fill:#000;fill-opacity:1"/><path style="fill:none;stroke-width:1;stroke-linecap:butt;stroke-linejoin:miter;stroke:#e9a4de;stroke-opacity:1;stroke-miterlimit:10" d="M84 14v6" transform="scale(20)"/><path style="fill:none;stroke-width:.2;stroke-linecap:butt;stroke-linejoin:miter;stroke:#000;stroke-opacity:1;stroke-miterlimit:10" d="M88 17" transform="scale(20)"/><path style="fill-rule:evenodd;fill:#000;fill-opacity:1;stroke-width:.2;stroke-linecap:butt;stroke-linejoin:miter;stroke:#000;stroke-opacity:1;stroke-miterlimit:10" d="M87.5 17.25 88 17l-.5-.25v.5Zm0 0" transform="scale(20)"/><path style="fill:none;stroke-width:1;stroke-linecap:butt;stroke-linejoin:miter;stroke:#e9a4de;stroke-opacity:1;stroke-miterlimit:10" d="M86 14v6M90 14v6M92 14v6M88 14v6" transform="scale(20)"/><use xlink:href="#D" x="1745.898" y="355.523" style="fill:#000;fill-opacity:1"/><path style="fill:none;stroke-width:.1;stroke-linecap:butt;stroke-linejoin:miter;stroke:#000;stroke-opacity:1;stroke-miterlimit:10" d="M82.5 14h11M82.5 20h11M82.5 14a.5.5 0 0 0-.5.5M94 14.5a.5.5 0 0 0-.5-.5M82 14.5v5M94 14.5v5M82 19.5a.5.5 0 0 0 .5.5M93.5 20a.5.5 0 0 0 .5-.5" transform="scale(20)"/></svg>