<svg xmlns="http://www.w3.org/2000/svg" xmlns:xlink="http://www.w3.org/1999/xlink" width="1921pt" height="701pt" viewBox="0 0 1921 701"><defs><symbol overflow="visible" id="a"><path style="stroke:none" d="M15.188.36c-2 0-3.516-.458-4.547-1.376C9.609-1.93 8.92-3.344 8.578-5.25c-.336-1.914-.45-4.363-.344-7.344l.297-7.625H3.562v-3h5.079l.203-5.937 3.812-.453.5-.063.047.36a6.81 6.81 0 0 0-.437.718c-.118.23-.204.637-.266 1.219l-.36 4.156h8.126v3h-8.078l-.36 7.875c-.094 2.574-.027 4.563.203 5.969.239 1.406.66 2.375 1.266 2.906.613.524 1.43.781 2.453.781 1.113 0 2.102-.218 2.969-.656a22.171 22.171 0 0 0 2.718-1.687l1.11 2.89C21.398-1.285 20.219-.656 19-.25c-1.219.406-2.492.61-3.813.61Zm0 0"/></symbol><symbol overflow="visible" id="b"><path style="stroke:none" d="M12.703.406c-2.105 0-3.965-.515-5.578-1.547C5.52-2.17 4.258-3.594 3.344-5.406c-.906-1.813-1.36-3.883-1.36-6.219 0-2.375.454-4.469 1.36-6.281.914-1.813 2.176-3.235 3.781-4.266 1.613-1.031 3.473-1.547 5.578-1.547 2.094 0 3.942.516 5.547 1.547 1.613 1.031 2.879 2.453 3.797 4.266.914 1.812 1.375 3.906 1.375 6.281 0 2.336-.461 4.406-1.375 6.219-.918 1.812-2.184 3.234-3.797 4.265C16.645-.109 14.797.406 12.703.406Zm0-3.047c1.352 0 2.535-.39 3.547-1.171 1.02-.782 1.828-1.848 2.422-3.204.594-1.351.89-2.91.89-4.671 0-2.633-.648-4.79-1.937-6.47-1.281-1.675-2.922-2.515-4.922-2.515-2 0-3.648.84-4.937 2.516-1.282 1.68-1.922 3.836-1.922 6.468 0 1.762.297 3.32.89 4.672.594 1.356 1.407 2.422 2.438 3.204 1.031.78 2.207 1.171 3.531 1.171Zm0 0"/></symbol><symbol overflow="visible" id="c"><path style="stroke:none" d="M3.047 8.484v-31.703H6.75v4.578c.54-1.757 1.445-3.047 2.719-3.859 1.27-.813 2.719-1.219 4.344-1.219 1.726 0 3.328.434 4.796 1.297 1.477.867 2.664 2.18 3.563 3.938.894 1.761 1.344 3.996 1.344 6.703 0 2.71-.477 4.984-1.422 6.828-.95 1.844-2.168 3.234-3.657 4.172-1.492.926-3.062 1.39-4.718 1.39a8.259 8.259 0 0 1-3.922-.968 8.09 8.09 0 0 1-2.985-2.688V8.484ZM13.109-2.64a6.748 6.748 0 0 0 3.141-.78c1.02-.532 1.848-1.454 2.484-2.767.645-1.32.97-3.132.97-5.437 0-2.781-.528-4.941-1.579-6.484-1.043-1.54-2.527-2.364-4.453-2.47-1.262-.062-2.418.22-3.469.845-1.043.625-1.883 1.668-2.515 3.125-.625 1.46-.938 3.39-.938 5.797.07 2.742.68 4.789 1.828 6.14C9.734-3.316 11.242-2.64 13.11-2.64Zm0 0"/></symbol><symbol overflow="visible" id="d"><path style="stroke:none" d="M5.078 0v-2.953h5.938v-17.313H5.39v-2.953h9.296v20.266h5.422V0Zm7.578-28.094c-.719 0-1.336-.25-1.844-.75a2.536 2.536 0 0 1-.75-1.843c0-.739.243-1.364.735-1.875.488-.508 1.11-.766 1.86-.766.706 0 1.32.266 1.843.797.531.523.797 1.136.797 1.843 0 .72-.266 1.336-.797 1.844-.523.5-1.137.75-1.844.75Zm0 0"/></symbol><symbol overflow="visible" id="e"><path style="stroke:none" d="M14.484.563c-2.242 0-4.242-.528-6-1.579-1.761-1.05-3.14-2.488-4.14-4.312-1-1.832-1.5-3.914-1.5-6.25 0-2.344.5-4.414 1.5-6.219 1-1.812 2.367-3.242 4.11-4.297 1.75-1.05 3.737-1.578 5.968-1.578 1.894 0 3.598.383 5.11 1.14a9.87 9.87 0 0 1 3.687 3.173l-2.297 2.234-.344.36-.265-.25c0-.27-.06-.524-.172-.766-.118-.239-.375-.563-.782-.969-.75-.676-1.547-1.148-2.39-1.422-.844-.27-1.828-.406-2.953-.406-1.282 0-2.493.36-3.625 1.078-1.137.71-2.055 1.715-2.75 3.016-.688 1.304-1.032 2.855-1.032 4.656 0 1.719.344 3.265 1.032 4.64.695 1.375 1.656 2.461 2.875 3.25 1.218.793 2.609 1.188 4.171 1.188 2.333 0 4.344-.945 6.032-2.844l2.14 2.5C20.586-.656 17.797.562 14.484.562Zm0 0"/></symbol><symbol overflow="visible" id="s"><path style="stroke:none" d="M1.938 0v-23.219H5.28v2.297a6.469 6.469 0 0 1 2.078-2.062c.852-.52 1.735-.782 2.641-.782 1.02 0 1.91.325 2.672.97a4.25 4.25 0 0 1 1.453 2.421 5.52 5.52 0 0 1 2.078-2.453c.945-.625 2-.938 3.156-.938 1.582 0 2.739.57 3.47 1.703.726 1.125 1.062 2.54 1 4.235V0h-3.36v-16.453c0-1.426-.094-2.457-.282-3.094-.187-.644-.453-1.062-.796-1.25a2.23 2.23 0 0 0-1.11-.281c-.636 0-1.234.297-1.797.89-.562.594-1.023 1.336-1.375 2.22a6.925 6.925 0 0 0-.53 2.624V0h-3.407v-16.156c0-1.926-.18-3.211-.531-3.86-.356-.644-1.024-.968-2-.968-.75 0-1.5.484-2.25 1.453-.743.968-1.11 2.312-1.11 4.031V0Zm0 0"/></symbol><symbol overflow="visible" id="t"><path style="stroke:none" d="M10.719.563c-2.649 0-4.684-.598-6.11-1.797-1.418-1.207-2.125-2.743-2.125-4.61 0-1.656.524-3.082 1.579-4.281 1.05-1.207 2.46-2.14 4.234-2.797 1.781-.664 3.738-1 5.875-1 .781 0 1.601.024 2.469.063.863.03 1.785.117 2.765.25-.21-2.707-.914-4.567-2.11-5.579-1.198-1.019-2.917-1.53-5.155-1.53a8.932 8.932 0 0 0-3.297.64c-1.086.418-2.07 1.062-2.953 1.937l-1.782-2.328a10.619 10.619 0 0 1 3.75-2.437 12.712 12.712 0 0 1 4.532-.813c2.07 0 3.867.34 5.39 1.016 1.52.68 2.703 1.844 3.547 3.5.852 1.656 1.281 3.945 1.281 6.86V0h-3.968v-3.563c-.575 1.126-1.309 1.985-2.203 2.579A8.483 8.483 0 0 1 13.594.219c-1 .226-1.961.344-2.875.344ZM6.14-6.048c0 1.461.472 2.461 1.421 3 .946.543 2.118.813 3.516.813 2.5 0 4.477-.735 5.938-2.204 1.457-1.476 2.254-3.601 2.39-6.375-1.761-.238-3.402-.359-4.922-.359-2.449 0-4.453.406-6.015 1.219-1.555.812-2.328 2.117-2.328 3.906Zm0 0"/></symbol><symbol overflow="visible" id="u"><path style="stroke:none" d="M12.75.516c-3.93 0-7.215-1.223-9.86-3.672L4.923-6.61l.312-.454.297.204c.07.273.149.554.235.843.082.282.312.625.687 1.032.707.718 1.563 1.308 2.563 1.765 1 .45 2.28.672 3.843.672 1.852 0 3.297-.328 4.329-.984 1.039-.656 1.562-1.563 1.562-2.719 0-.977-.434-1.79-1.297-2.438-.867-.644-2.383-1.32-4.547-2.03-2.68-.782-4.804-1.743-6.375-2.891-1.574-1.157-2.36-2.598-2.36-4.329 0-1.757.72-3.171 2.157-4.234 1.438-1.062 3.563-1.594 6.375-1.594 2.164 0 3.957.309 5.375.922 1.426.606 2.711 1.516 3.86 2.735l-2.079 2.53-.359.407-.25-.25a2.342 2.342 0 0 0-.234-.781c-.118-.258-.36-.578-.735-.953a8.656 8.656 0 0 0-2.64-1.39c-.98-.321-1.93-.485-2.844-.485-1.356 0-2.524.242-3.5.718-.98.47-1.469 1.196-1.469 2.172 0 .512.176 1.012.531 1.5.352.493 1.004.985 1.954 1.485.945.492 2.3.984 4.062 1.484 2.914.887 4.973 1.844 6.172 2.875 1.195 1.031 1.797 2.383 1.797 4.047 0 1.281-.352 2.484-1.047 3.61-.688 1.117-1.746 2.007-3.172 2.671-1.418.656-3.21.985-5.375.985Zm0 0"/></symbol><symbol overflow="visible" id="v"><path style="stroke:none" d="M13.813.516c-3.387 0-6.122-1.032-8.204-3.094-2.086-2.07-3.125-5.055-3.125-8.953 0-2.645.485-4.867 1.454-6.672.968-1.813 2.253-3.192 3.859-4.14 1.601-.946 3.39-1.423 5.36-1.423 1.757 0 3.347.391 4.765 1.172 1.426.774 2.562 1.969 3.406 3.594.852 1.625 1.281 3.71 1.281 6.25 0 .273-.011.555-.03.844-.024.281-.048.558-.079.828H6c.133 2.98.969 5.168 2.5 6.562 1.54 1.387 3.348 2.079 5.422 2.079 2.437 0 4.43-.864 5.984-2.594l2.032 1.984C19.977-.672 17.27.516 13.813.516ZM6.14-13.922h12.75c0-2.164-.555-3.883-1.657-5.156-1.093-1.27-2.539-1.906-4.328-1.906-1.594 0-3.039.57-4.328 1.703-1.281 1.136-2.094 2.922-2.437 5.36Zm0 0"/></symbol><symbol overflow="visible" id="w"><path style="stroke:none" d="M6.047-23.219h3.812l-.109 4.266c.645-1.55 1.645-2.738 3-3.563a8.204 8.204 0 0 1 4.375-1.25c2.469 0 4.516.844 6.14 2.532l-1.624 2.843-.203.453-.36-.203a2.734 2.734 0 0 0-.297-.75c-.136-.238-.43-.53-.875-.875-.543-.332-1.043-.554-1.5-.672a5.786 5.786 0 0 0-1.547-.187c-1.117 0-2.226.293-3.328.875-1.094.574-2 1.469-2.719 2.688-.71 1.218-1.062 2.808-1.062 4.765V.047H6.047Zm0 0"/></symbol><symbol overflow="visible" id="f"><path style="stroke:none" d="M23.234 0 9.704-35.656h-.22c.094 1.117.176 2.601.25 4.453.082 1.844.125 3.758.125 5.734V0H5.516v-40.281h6.937l12.766 33.5h.187l12.953-33.5h6.891V0h-4.625v-25.797c0-1.8.04-3.594.125-5.375.082-1.781.16-3.258.234-4.437h-.234L27.062 0Zm0 0"/></symbol><symbol overflow="visible" id="g"><path style="stroke:none" d="M16.453-30.75c2.57 0 4.774.57 6.61 1.703 1.843 1.137 3.25 2.73 4.218 4.781.977 2.055 1.469 4.45 1.469 7.188v2.828H7.875c.063 3.555.945 6.258 2.656 8.11 1.707 1.855 4.114 2.78 7.219 2.78 1.906 0 3.594-.171 5.063-.515 1.468-.352 2.992-.867 4.578-1.547v4.016A22.236 22.236 0 0 1 22.859.078c-1.5.313-3.273.469-5.312.469-4.356 0-7.844-1.32-10.469-3.969-2.625-2.656-3.937-6.473-3.937-11.453 0-3.258.546-6.078 1.64-8.453 1.094-2.375 2.633-4.203 4.625-5.485 2-1.289 4.348-1.937 7.047-1.937ZM16.391-27c-2.438 0-4.387.797-5.844 2.39-1.45 1.594-2.309 3.829-2.578 6.704h15.984c-.023-2.707-.648-4.899-1.875-6.578C20.86-26.16 18.961-27 16.391-27Zm0 0"/></symbol><symbol overflow="visible" id="h"><path style="stroke:none" d="M18.547-30.75c1.3 0 2.523.121 3.672.36l-.594 4.234a13.997 13.997 0 0 0-3.36-.407c-1.617 0-3.093.43-4.437 1.282-1.336.855-2.402 2.058-3.203 3.61-.805 1.554-1.203 3.374-1.203 5.468V0H4.828v-30.203h3.797l.5 5.562h.188A13.516 13.516 0 0 1 13-28.953c1.55-1.195 3.398-1.797 5.547-1.797Zm0 0"/></symbol><symbol overflow="visible" id="i"><path style="stroke:none" d="M13.25 13.563c-3.969 0-7.027-.743-9.172-2.22C1.93 9.864.86 7.79.86 5.126c0-1.898.598-3.516 1.797-4.86 1.207-1.331 2.875-2.218 5-2.656a5.515 5.515 0 0 1-2.031-1.656c-.555-.738-.828-1.586-.828-2.547 0-1.093.305-2.054.922-2.89.613-.844 1.554-1.649 2.828-2.422-1.586-.645-2.871-1.735-3.86-3.266-.98-1.531-1.468-3.316-1.468-5.36 0-3.25 1-5.773 3-7.577 2.008-1.801 4.832-2.703 8.468-2.703 1.727 0 3.22.183 4.47.546h10.359v2.953l-5.563.688c.55.719 1.008 1.586 1.375 2.594.363 1.011.547 2.133.547 3.36 0 3.01-1.023 5.405-3.063 7.187-2.03 1.773-4.835 2.656-8.406 2.656-.844 0-1.703-.07-2.578-.219-1.844 1.012-2.765 2.262-2.765 3.75 0 .875.398 1.496 1.203 1.86.8.355 1.914.53 3.343.53h5.329c3.28 0 5.796.696 7.546 2.079 1.758 1.375 2.641 3.383 2.641 6.031 0 3.344-1.36 5.906-4.078 7.688-2.719 1.78-6.652 2.671-11.797 2.671Zm1.328-27.735c4.395 0 6.594-2.156 6.594-6.469 0-4.52-2.219-6.78-6.656-6.78-2.094 0-3.711.585-4.844 1.75-1.125 1.167-1.688 2.87-1.688 5.108 0 2.063.567 3.649 1.704 4.75 1.144 1.094 2.773 1.641 4.89 1.641Zm-1.187 24.14c3.726 0 6.515-.562 8.359-1.687 1.852-1.125 2.781-2.664 2.781-4.61 0-1.804-.62-2.976-1.86-3.515-1.23-.531-3-.797-5.312-.797h-5.234c-2.063 0-3.7.47-4.906 1.407-1.2.937-1.797 2.332-1.797 4.187 0 1.633.687 2.879 2.062 3.734 1.383.852 3.352 1.282 5.907 1.282Zm0 0"/></symbol><symbol overflow="visible" id="j"><path style="stroke:none" d="M2.266-13.125v-4.078h13.656v4.078Zm0 0"/></symbol><symbol overflow="visible" id="k"><path style="stroke:none" d="M5.516-40.281h11.406c5.031 0 8.812.758 11.344 2.265 2.539 1.5 3.812 4.059 3.812 7.672 0 2.356-.664 4.324-1.984 5.907-1.324 1.574-3.235 2.59-5.735 3.046v.282c2.625.43 4.786 1.375 6.485 2.843 1.707 1.47 2.562 3.735 2.562 6.797 0 3.719-1.273 6.563-3.812 8.531C27.062-.976 23.656 0 19.375 0H5.515Zm4.687 17.265h7.703c3.508 0 5.942-.578 7.297-1.734 1.352-1.156 2.031-2.844 2.031-5.063 0-2.3-.808-3.957-2.422-4.968-1.605-1.008-4.164-1.516-7.671-1.516h-6.938Zm0 3.953V-4h8.375c3.582 0 6.113-.703 7.594-2.11 1.488-1.406 2.234-3.3 2.234-5.687 0-2.281-.773-4.062-2.312-5.344-1.543-1.28-4.188-1.922-7.938-1.922Zm0 0"/></symbol><symbol overflow="visible" id="l"><path style="stroke:none" d="M16.125-30.703c3.594 0 6.266.812 8.016 2.437 1.75 1.618 2.625 4.196 2.625 7.735V0h-3.344l-.875-4.469h-.219c-1.273 1.68-2.648 2.934-4.125 3.766-1.48.832-3.527 1.25-6.14 1.25-2.75 0-5.016-.723-6.797-2.172C3.484-3.07 2.594-5.297 2.594-8.297c0-3.008 1.191-5.32 3.578-6.937 2.383-1.625 6.02-2.508 10.906-2.657l5.219-.218v-1.844c0-2.602-.563-4.426-1.688-5.469C19.492-26.472 17.914-27 15.875-27c-1.586 0-3.094.23-4.531.688-1.43.46-2.781 1-4.063 1.625l-1.406-3.47c1.352-.695 2.91-1.296 4.672-1.796 1.77-.5 3.629-.75 5.578-.75Zm6.11 15.828-4.594.188c-3.774.148-6.43.761-7.97 1.843-1.542 1.086-2.312 2.621-2.312 4.61 0 1.718.52 2.996 1.563 3.828 1.05.824 2.441 1.234 4.172 1.234 2.676 0 4.867-.742 6.578-2.234 1.707-1.489 2.562-3.719 2.562-6.688Zm0 0"/></symbol><symbol overflow="visible" id="m"><path style="stroke:none" d="M24.36-8.266c0 2.887-1.075 5.079-3.22 6.579C19.005-.196 16.083.546 12.376.546c-2.117 0-3.945-.168-5.484-.5C5.348-.273 4-.738 2.844-1.343v-4.22c1.226.606 2.695 1.157 4.406 1.657 1.707.492 3.453.734 5.234.734 2.602 0 4.493-.422 5.672-1.265 1.176-.844 1.766-1.989 1.766-3.438 0-1.25-.547-2.29-1.64-3.125-1.095-.844-3.09-1.805-5.985-2.89-1.938-.727-3.61-1.458-5.016-2.188-1.398-.727-2.48-1.613-3.25-2.656-.761-1.051-1.14-2.41-1.14-4.078 0-2.551 1.03-4.508 3.093-5.875 2.07-1.375 4.79-2.063 8.157-2.063 1.812 0 3.507.184 5.093.547 1.594.355 3.082.836 4.47 1.437l-1.548 3.657a28.596 28.596 0 0 0-4-1.344A17.365 17.365 0 0 0 13.828-27c-2.105 0-3.726.352-4.86 1.047-1.124.7-1.687 1.652-1.687 2.86 0 .937.258 1.71.782 2.312.519.605 1.359 1.18 2.515 1.718 1.156.532 2.68 1.153 4.578 1.86 1.895.7 3.531 1.422 4.906 2.172 1.375.742 2.43 1.64 3.172 2.703.75 1.055 1.125 2.406 1.125 4.062Zm0 0"/></symbol><symbol overflow="visible" id="n"><path style="stroke:none" d="M7.172-41.5a2.8 2.8 0 0 1 1.937.734c.54.48.813 1.235.813 2.266 0 1.012-.274 1.766-.813 2.266-.543.492-1.187.734-1.937.734-.793 0-1.453-.242-1.984-.734-.524-.5-.782-1.254-.782-2.266 0-1.031.258-1.785.782-2.266.53-.488 1.19-.734 1.984-.734ZM9.39-30.203V0H4.828v-30.203Zm0 0"/></symbol><symbol overflow="visible" id="o"><path style="stroke:none" d="M22.734-36.734c-2.96 0-5.515.672-7.672 2.015-2.148 1.344-3.796 3.258-4.953 5.735-1.156 2.48-1.734 5.418-1.734 8.812 0 5.094 1.18 9.137 3.547 12.125 2.375 2.992 5.93 4.485 10.672 4.485 1.8 0 3.492-.149 5.078-.454 1.594-.3 3.144-.68 4.656-1.14v4.078c-1.469.555-3.016.96-4.64 1.219-1.618.27-3.532.406-5.75.406-4.094 0-7.516-.848-10.266-2.547-2.75-1.695-4.813-4.098-6.188-7.203-1.367-3.102-2.046-6.77-2.046-11 0-4.063.753-7.645 2.265-10.75 1.508-3.102 3.703-5.531 6.578-7.281 2.875-1.758 6.38-2.641 10.516-2.641 4.187 0 7.86.781 11.015 2.344l-1.874 3.968a29.288 29.288 0 0 0-4.235-1.515c-1.531-.438-3.187-.656-4.969-.656Zm0 0"/></symbol><symbol overflow="visible" id="p"><path style="stroke:none" d="M30.86-15.156c0 4.96-1.247 8.82-3.735 11.578C24.633-.828 21.223.547 16.891.547c-2.68 0-5.059-.617-7.141-1.86-2.074-1.238-3.695-3.03-4.86-5.375-1.167-2.343-1.75-5.164-1.75-8.468 0-4.957 1.243-8.797 3.735-11.516 2.488-2.719 5.89-4.078 10.203-4.078 2.758 0 5.172.617 7.235 1.844 2.07 1.23 3.68 3.008 4.828 5.328 1.144 2.324 1.718 5.133 1.718 8.422Zm-22.985 0c0 3.656.727 6.558 2.188 8.703C11.53-4.316 13.842-3.25 17-3.25c3.145 0 5.453-1.07 6.922-3.219 1.469-2.156 2.203-5.05 2.203-8.687 0-3.614-.73-6.473-2.188-8.578-1.46-2.102-3.78-3.157-6.968-3.157-3.137 0-5.438 1.04-6.907 3.11-1.46 2.074-2.187 4.949-2.187 8.625Zm0 0"/></symbol><symbol overflow="visible" id="q"><path style="stroke:none" d="M37.61-30.75c3.331 0 5.843.871 7.53 2.61 1.688 1.73 2.532 4.515 2.532 8.359V0h-4.516v-19.563c0-4.882-2.093-7.328-6.281-7.328-2.93 0-5.055.844-6.375 2.532-1.324 1.687-1.984 4.18-1.984 7.468V0h-4.547v-19.563c0-4.882-2.102-7.328-6.297-7.328-3 0-5.133.93-6.39 2.782-1.262 1.855-1.891 4.562-1.891 8.125V0H4.828v-30.203h3.688l.687 4.265h.25a9.193 9.193 0 0 1 3.735-3.578c1.582-.82 3.343-1.234 5.28-1.234 2.29 0 4.212.43 5.766 1.281 1.551.856 2.676 2.153 3.375 3.89h.25c.989-1.737 2.348-3.034 4.078-3.89 1.727-.851 3.618-1.281 5.672-1.281Zm0 0"/></symbol><symbol overflow="visible" id="r"><path style="stroke:none" d="M14.578-3.203c.75 0 1.52-.063 2.313-.188.789-.125 1.437-.28 1.937-.468v3.562c-.543.242-1.289.438-2.234.594-.938.164-1.86.25-2.766.25-1.594 0-3.047-.277-4.36-.828-1.304-.563-2.343-1.516-3.124-2.86-.774-1.343-1.157-3.195-1.157-5.562v-17.922H.875v-2.234l4.328-1.782 1.828-6.562h2.75v7h8.844v3.578H9.781v17.781c0 1.899.438 3.313 1.313 4.25.875.93 2.035 1.39 3.484 1.39Zm0 0"/></symbol><symbol overflow="visible" id="x"><path style="stroke:none" d="M16.078.563c-2.523 0-4.828-.63-6.922-1.891C7.07-2.586 5.422-4.54 4.203-7.188c-1.219-2.656-1.851-6.05-1.89-10.187 0-3.469.398-6.36 1.203-8.672.812-2.312 1.875-4.156 3.187-5.531 1.32-1.375 2.781-2.36 4.375-2.953 1.602-.602 3.195-.907 4.781-.907 2.563 0 4.743.633 6.547 1.891 1.801 1.262 3.157 2.945 4.063 5.047l-3.39 1.578-.5.235-.173-.407c.114-.3.114-.57 0-.812-.117-.25-.324-.633-.625-1.157-.937-1.28-1.906-2.132-2.906-2.562a7.72 7.72 0 0 0-3.125-.656c-2.98 0-5.324 1.293-7.031 3.875-1.711 2.574-2.563 6.152-2.563 10.734 0 2.938.438 5.527 1.313 7.766C8.352-7.664 9.53-5.926 11-4.687c1.469 1.242 3.11 1.859 4.922 1.859 1.426 0 2.77-.383 4.031-1.156 1.258-.77 2.285-1.813 3.078-3.125l2.938 1.921c-1.137 1.875-2.496 3.305-4.078 4.282C20.316.07 18.379.563 16.078.563Zm0 0"/></symbol><symbol overflow="visible" id="y"><path style="stroke:none" d="M3.047.063v-35.22h8.187c3.008 0 5.348.419 7.016 1.25 1.676.825 3.098 2.009 4.266 3.548 2.3 3.086 3.453 7.414 3.453 12.984-.157 3.574-.758 6.668-1.797 9.281-1.031 2.617-2.649 4.633-4.844 6.047-2.2 1.406-5.125 2.11-8.781 2.11Zm3.719-3.11h3.625c4.02 0 6.968-1.21 8.843-3.64 1.883-2.426 2.813-5.915 2.782-10.47-.043-4.593-.903-8.187-2.578-10.78-1.668-2.594-4.481-3.891-8.438-3.891H6.766Zm0 0"/></symbol><symbol overflow="visible" id="z"><path style="stroke:none" d="M2.703 0v-35.156h10c4.063 0 7.02.793 8.875 2.375 1.863 1.574 2.797 3.62 2.797 6.14 0 1.657-.453 3.22-1.36 4.688-.898 1.469-2.171 2.508-3.828 3.11 2 .679 3.598 1.855 4.797 3.53 1.207 1.668 1.813 3.481 1.813 5.438 0 2.969-1.059 5.36-3.172 7.172C20.52-.898 17.191 0 12.641 0ZM6.61-20.594h5.532c3.113 0 5.273-.523 6.484-1.578 1.207-1.062 1.813-2.398 1.813-4.015 0-1.54-.586-2.864-1.75-3.97-1.168-1.113-3.149-1.671-5.938-1.671H6.61Zm0 17.157h6.704c2.445 0 4.44-.5 5.984-1.5 1.539-1 2.312-2.723 2.312-5.172 0-2.102-.687-3.82-2.062-5.157-1.367-1.332-3.762-2-7.188-2H6.61Zm0 0"/></symbol><symbol overflow="visible" id="A"><path style="stroke:none" d="m23.25 0-3.547-10.266H8.36L4.797 0H.907L13.89-35.781h.437L27.313 0Zm-9.203-26.75L9.422-13.312h9.265Zm0 0"/></symbol><symbol overflow="visible" id="B"><path style="stroke:none" d="M3.328 0v-35.219h21.563v3.5H7.047v11.578H21.78v3.61H7.047V-3.5h17.672V0Zm0 0"/></symbol><symbol overflow="visible" id="C"><path style="stroke:none" d="M4.406 0v-35.219h20.25v3.438H8.36v11.062H21.5v3.453H8.36V0Zm0 0"/></symbol><symbol overflow="visible" id="D"><path style="stroke:none" d="M2.313 0v-35.156h3.109l8.687 17.203 8.86-17.266h3V0h-3.735v-26.531L14.625-12.36h-1.531l-7.11-14V0Zm0 0"/></symbol></defs><path style="fill:#fff;fill-opacity:1;stroke:none" d="M0 0h1921v701H0z"/><path style="fill:none;stroke-width:.05;stroke-linecap:butt;stroke-linejoin:miter;stroke:#000;stroke-opacity:1;stroke-miterlimit:10" d="M0 0h96v35H0Zm0 0" transform="matrix(20 0 0 20 1 1)"/><path style="fill:none;stroke-width:.35;stroke-linecap:butt;stroke-linejoin:miter;stroke:#000;stroke-opacity:1;stroke-miterlimit:10" d="M22 17h-8M42 17h-7.95M62 17h-8M61.95 30H54M42 30 28 20" transform="matrix(20 0 0 20 1 1)"/><path style="fill-rule:evenodd;fill:#9eec9e;fill-opacity:1;stroke-width:.1;stroke-linecap:butt;stroke-linejoin:round;stroke:#000;stroke-opacity:1;stroke-miterlimit:10" d="M62.897 23.486a.5.5 0 0 0-.5.5v2.028a.5.5 0 0 0 .5.5h10.206a.5.5 0 0 0 .5-.5v-2.028a.5.5 0 0 0-.5-.5Zm0 0" transform="matrix(20 0 0 20 1 1)"/><g style="fill:#000;fill-opacity:1"><use xlink:href="#a" x="1297.504" y="517.981"/><use xlink:href="#b" x="1322.903" y="517.981"/><use xlink:href="#c" x="1348.303" y="517.981"/><use xlink:href="#d" x="1373.703" y="517.981"/><use xlink:href="#e" x="1399.102" y="517.981"/></g><path style="fill:none;stroke-width:.35;stroke-linecap:butt;stroke-linejoin:round;stroke:#000;stroke-opacity:1;stroke-miterlimit:10" d="M82 17h-8M88 20 74 30M28.597 13.52l11.156-8.991" transform="matrix(20 0 0 20 1 1)"/><path style="fill-rule:evenodd;fill:#000;fill-opacity:1;stroke-width:.35;stroke-linecap:butt;stroke-linejoin:miter;stroke:#000;stroke-opacity:1;stroke-miterlimit:10" d="m28.305 13.754.232-.508.06.273.254.116Zm0 0" transform="matrix(20 0 0 20 1 1)"/><g style="fill:#000;fill-opacity:1"><use xlink:href="#f" x="624.039" y="80.659"/><use xlink:href="#g" x="674.806" y="80.659"/><use xlink:href="#h" x="706.5" y="80.659"/><use xlink:href="#i" x="729.568" y="80.659"/><use xlink:href="#g" x="760.216" y="80.659"/><use xlink:href="#j" x="791.91" y="80.659"/><use xlink:href="#k" x="810.073" y="80.659"/><use xlink:href="#l" x="846.535" y="80.659"/><use xlink:href="#m" x="877.899" y="80.659"/><use xlink:href="#n" x="904.798" y="80.659"/><use xlink:href="#m" x="919.047" y="80.659"/></g><g style="fill:#000;fill-opacity:1"><use xlink:href="#f" x="1206.875" y="77.748"/><use xlink:href="#g" x="1257.642" y="77.748"/><use xlink:href="#h" x="1289.336" y="77.748"/><use xlink:href="#i" x="1312.404" y="77.748"/><use xlink:href="#g" x="1343.051" y="77.748"/><use xlink:href="#j" x="1374.746" y="77.748"/><use xlink:href="#o" x="1392.909" y="77.748"/><use xlink:href="#p" x="1428.462" y="77.748"/><use xlink:href="#q" x="1462.416" y="77.748"/><use xlink:href="#q" x="1514.671" y="77.748"/><use xlink:href="#n" x="1566.926" y="77.748"/><use xlink:href="#r" x="1581.174" y="77.748"/></g><path style="fill:none;stroke-width:.35;stroke-linecap:butt;stroke-linejoin:miter;stroke:#000;stroke-opacity:1;stroke-miterlimit:10" d="M81.541 13.677 69.753 4.529" transform="matrix(20 0 0 20 1 1)"/><path style="fill-rule:evenodd;fill:#000;fill-opacity:1;stroke-width:.35;stroke-linecap:butt;stroke-linejoin:miter;stroke:#000;stroke-opacity:1;stroke-miterlimit:10" d="m81.837 13.906-.548-.109.252-.12.055-.274Zm0 0" transform="matrix(20 0 0 20 1 1)"/><path style="fill-rule:evenodd;fill:#a9e5a1;fill-opacity:1;stroke-width:.1;stroke-linecap:butt;stroke-linejoin:miter;stroke:#000;stroke-opacity:1;stroke-miterlimit:10" d="M82.5 10a.5.5 0 0 0-.5.5v2.275a.5.5 0 0 0 .5.5h11a.5.5 0 0 0 .5-.5V10.5a.5.5 0 0 0-.5-.5Zm0 0" transform="matrix(20 0 0 20 1 1)"/><g style="fill:#000;fill-opacity:1"><use xlink:href="#s" x="1684.809" y="245.653"/><use xlink:href="#t" x="1710.208" y="245.653"/><use xlink:href="#u" x="1735.608" y="245.653"/><use xlink:href="#a" x="1761.007" y="245.653"/><use xlink:href="#v" x="1786.407" y="245.653"/><use xlink:href="#w" x="1811.806" y="245.653"/></g><path style="fill-rule:evenodd;fill:#a1bbe5;fill-opacity:1;stroke-width:.1;stroke-linecap:butt;stroke-linejoin:miter;stroke:#000;stroke-opacity:1;stroke-miterlimit:10" d="M42.5 14a.5.5 0 0 0-.5.5v5a.5.5 0 0 0 .5.5h11a.5.5 0 0 0 .5-.5v-5a.5.5 0 0 0-.5-.5Zm0 0" transform="matrix(20 0 0 20 1 1)"/><use xlink:href="#x" x="946.898" y="354.232" style="fill:#000;fill-opacity:1"/><path style="fill-rule:evenodd;fill:#d2f2ce;fill-opacity:1;stroke-width:.1;stroke-linecap:butt;stroke-linejoin:miter;stroke:#a7a2a2;stroke-opacity:1;stroke-dasharray:.1,.1;stroke-miterlimit:10" d="M62.5 10a.5.5 0 0 0-.5.5v2.275a.5.5 0 0 0 .5.5h11a.5.5 0 0 0 .5-.5V10.5a.5.5 0 0 0-.5-.5Zm0 0" transform="matrix(20 0 0 20 1 1)"/><g style="fill:#a7a2a2;fill-opacity:1"><use xlink:href="#s" x="1284.809" y="245.653"/><use xlink:href="#t" x="1310.208" y="245.653"/><use xlink:href="#u" x="1335.608" y="245.653"/><use xlink:href="#a" x="1361.007" y="245.653"/><use xlink:href="#v" x="1386.407" y="245.653"/><use xlink:href="#w" x="1411.806" y="245.653"/></g><path style="fill-rule:evenodd;fill:#a1bbe5;fill-opacity:1;stroke-width:.1;stroke-linecap:butt;stroke-linejoin:miter;stroke:#000;stroke-opacity:1;stroke-miterlimit:10" d="M62.5 14a.5.5 0 0 0-.5.5v5a.5.5 0 0 0 .5.5h11a.5.5 0 0 0 .5-.5v-5a.5.5 0 0 0-.5-.5Zm0 0" transform="matrix(20 0 0 20 1 1)"/><use xlink:href="#y" x="1346.898" y="354.232" style="fill:#000;fill-opacity:1"/><path style="fill-rule:evenodd;fill:#a1bbe5;fill-opacity:1;stroke-width:.1;stroke-linecap:butt;stroke-linejoin:miter;stroke:#000;stroke-opacity:1;stroke-miterlimit:10" d="M22.5 14a.5.5 0 0 0-.5.5v5a.5.5 0 0 0 .5.5h11a.5.5 0 0 0 .5-.5v-5a.5.5 0 0 0-.5-.5Zm0 0" transform="matrix(20 0 0 20 1 1)"/><use xlink:href="#z" x="546.898" y="354.232" style="fill:#000;fill-opacity:1"/><path style="fill-rule:evenodd;fill:#a1bbe5;fill-opacity:1;stroke-width:.1;stroke-linecap:butt;stroke-linejoin:miter;stroke:#000;stroke-opacity:1;stroke-miterlimit:10" d="M2.5 14a.5.5 0 0 0-.5.5v5a.5.5 0 0 0 .5.5h11a.5.5 0 0 0 .5-.5v-5a.5.5 0 0 0-.5-.5Zm0 0" transform="matrix(20 0 0 20 1 1)"/><use xlink:href="#A" x="146.898" y="354.232" style="fill:#000;fill-opacity:1"/><path style="fill-rule:evenodd;fill:#e9a4de;fill-opacity:1;stroke-width:.1;stroke-linecap:butt;stroke-linejoin:miter;stroke:#000;stroke-opacity:1;stroke-miterlimit:10" d="M42.5 27a.5.5 0 0 0-.5.5v5a.5.5 0 0 0 .5.5h11a.5.5 0 0 0 .5-.5v-5a.5.5 0 0 0-.5-.5Zm0 0" transform="matrix(20 0 0 20 1 1)"/><use xlink:href="#B" x="946.898" y="614.232" style="fill:#000;fill-opacity:1"/><path style="fill-rule:evenodd;fill:#e9a4de;fill-opacity:1;stroke-width:.1;stroke-linecap:butt;stroke-linejoin:miter;stroke:#000;stroke-opacity:1;stroke-miterlimit:10" d="M62.5 27a.5.5 0 0 0-.5.5v5a.5.5 0 0 0 .5.5h11a.5.5 0 0 0 .5-.5v-5a.5.5 0 0 0-.5-.5Zm0 0" transform="matrix(20 0 0 20 1 1)"/><use xlink:href="#C" x="1346.898" y="614.232" style="fill:#000;fill-opacity:1"/><path style="fill-rule:evenodd;fill:#a1bbe5;fill-opacity:1;stroke-width:.1;stroke-linecap:butt;stroke-linejoin:miter;stroke:#000;stroke-opacity:1;stroke-miterlimit:10" d="M82.5 14a.5.5 0 0 0-.5.5v5a.5.5 0 0 0 .5.5h11a.5.5 0 0 0 .5-.5v-5a.5.5 0 0 0-.5-.5Zm0 0" transform="matrix(20 0 0 20 1 1)"/><use xlink:href="#D" x="1746.898" y="354.232" style="fill:#000;fill-opacity:1"/><path style="fill:none;stroke-width:1;stroke-linecap:butt;stroke-linejoin:miter;stroke:#e9a4de;stroke-opacity:1;stroke-miterlimit:10" d="M84 14v6" transform="matrix(20 0 0 20 1 1)"/><path style="fill:none;stroke-width:.2;stroke-linecap:butt;stroke-linejoin:miter;stroke:#000;stroke-opacity:1;stroke-miterlimit:10" d="M88 17" transform="matrix(20 0 0 20 1 1)"/><path style="fill-rule:evenodd;fill:#000;fill-opacity:1;stroke-width:.2;stroke-linecap:butt;stroke-linejoin:miter;stroke:#000;stroke-opacity:1;stroke-miterlimit:10" d="M87.5 17.25 88 17l-.5-.25Zm0 0" transform="matrix(20 0 0 20 1 1)"/><path style="fill:none;stroke-width:1;stroke-linecap:butt;stroke-linejoin:miter;stroke:#e9a4de;stroke-opacity:1;stroke-miterlimit:10" d="M86 14v6M90 14v6M92 14v6M88 14v6" transform="matrix(20 0 0 20 1 1)"/><use xlink:href="#D" x="1746.898" y="359.884" style="fill:#000;fill-opacity:1"/><path style="fill-rule:evenodd;fill:#a1bbe5;fill-opacity:1;stroke-width:.1;stroke-linecap:butt;stroke-linejoin:miter;stroke:#000;stroke-opacity:1;stroke-miterlimit:10" d="M82.5 14a.5.5 0 0 0-.5.5v5a.5.5 0 0 0 .5.5h11a.5.5 0 0 0 .5-.5v-5a.5.5 0 0 0-.5-.5Zm0 0" transform="matrix(20 0 0 20 1 1)"/></svg>